<mxfile host="Electron" modified="2024-04-28T13:48:30.266Z" agent="Mozilla/5.0 (Windows NT 10.0; Win64; x64) AppleWebKit/537.36 (KHTML, like Gecko) draw.io/24.2.5 Chrome/120.0.6099.109 Electron/28.1.0 Safari/537.36" etag="S1DKl8N39W61tY2dcxEg" version="24.2.5" type="device">
  <diagram name="Page-1" id="2YBvvXClWsGukQMizWep">
    <mxGraphModel dx="3306" dy="1720" grid="1" gridSize="10" guides="1" tooltips="1" connect="1" arrows="1" fold="1" page="1" pageScale="1" pageWidth="850" pageHeight="1100" math="0" shadow="0">
      <root>
        <mxCell id="0" />
        <mxCell id="1" parent="0" />
        <mxCell id="OJlb8ptIAYDwukcM9Dsc-1" value="Χρήστης" style="shape=umlActor;verticalLabelPosition=bottom;verticalAlign=top;html=1;outlineConnect=0;" parent="1" vertex="1">
          <mxGeometry x="50" y="40" width="30" height="60" as="geometry" />
        </mxCell>
        <mxCell id="OJlb8ptIAYDwukcM9Dsc-2" value="Αρχική Σελίδα Χρήστη" style="html=1;whiteSpace=wrap;" parent="1" vertex="1">
          <mxGeometry x="120" y="40" width="120" height="50" as="geometry" />
        </mxCell>
        <mxCell id="OJlb8ptIAYDwukcM9Dsc-4" value="Κουμπί Purchase" style="html=1;whiteSpace=wrap;" parent="1" vertex="1">
          <mxGeometry x="919.0099999999999" y="40" width="120" height="50" as="geometry" />
        </mxCell>
        <mxCell id="OJlb8ptIAYDwukcM9Dsc-5" value="Σελίδα Περιγραφής Outfit" style="html=1;whiteSpace=wrap;" parent="1" vertex="1">
          <mxGeometry x="600" y="40" width="120" height="50" as="geometry" />
        </mxCell>
        <mxCell id="8BVao231dfBzDB3epPgj-1" value="Σελίδα Πληρωμών Καταστήματος" style="html=1;whiteSpace=wrap;" parent="1" vertex="1">
          <mxGeometry x="1879.0100000000002" y="35" width="120" height="50" as="geometry" />
        </mxCell>
        <mxCell id="8BVao231dfBzDB3epPgj-3" value="" style="endArrow=none;dashed=1;html=1;rounded=0;" parent="1" source="lsNzPfz-fl1_cLYY8Ib9-2" edge="1">
          <mxGeometry width="50" height="50" relative="1" as="geometry">
            <mxPoint x="70" y="760" as="sourcePoint" />
            <mxPoint x="70" y="120" as="targetPoint" />
          </mxGeometry>
        </mxCell>
        <mxCell id="8BVao231dfBzDB3epPgj-4" value="" style="endArrow=none;dashed=1;html=1;rounded=0;" parent="1" edge="1" source="7P_DYDdccwQ0DPqGcEVc-1">
          <mxGeometry width="50" height="50" relative="1" as="geometry">
            <mxPoint x="180" y="760" as="sourcePoint" />
            <mxPoint x="179.5" y="90" as="targetPoint" />
          </mxGeometry>
        </mxCell>
        <mxCell id="8BVao231dfBzDB3epPgj-5" value="" style="endArrow=none;dashed=1;html=1;rounded=0;" parent="1" edge="1">
          <mxGeometry width="50" height="50" relative="1" as="geometry">
            <mxPoint x="499.5" y="190" as="sourcePoint" />
            <mxPoint x="499.5" y="90" as="targetPoint" />
          </mxGeometry>
        </mxCell>
        <mxCell id="8BVao231dfBzDB3epPgj-6" value="" style="endArrow=none;dashed=1;html=1;rounded=0;" parent="1" edge="1" source="7P_DYDdccwQ0DPqGcEVc-8">
          <mxGeometry width="50" height="50" relative="1" as="geometry">
            <mxPoint x="979.0099999999999" y="880" as="sourcePoint" />
            <mxPoint x="978.5099999999999" y="90" as="targetPoint" />
          </mxGeometry>
        </mxCell>
        <mxCell id="8BVao231dfBzDB3epPgj-7" value="" style="endArrow=none;dashed=1;html=1;rounded=0;" parent="1" edge="1" source="7P_DYDdccwQ0DPqGcEVc-12">
          <mxGeometry width="50" height="50" relative="1" as="geometry">
            <mxPoint x="1939.0100000000002" y="880" as="sourcePoint" />
            <mxPoint x="1938.5100000000002" y="85" as="targetPoint" />
          </mxGeometry>
        </mxCell>
        <mxCell id="8BVao231dfBzDB3epPgj-9" value="" style="endArrow=classic;html=1;rounded=0;" parent="1" edge="1">
          <mxGeometry width="50" height="50" relative="1" as="geometry">
            <mxPoint x="70" y="140" as="sourcePoint" />
            <mxPoint x="180" y="140" as="targetPoint" />
          </mxGeometry>
        </mxCell>
        <mxCell id="8BVao231dfBzDB3epPgj-11" value="OnClick()" style="edgeLabel;html=1;align=center;verticalAlign=middle;resizable=0;points=[];" parent="8BVao231dfBzDB3epPgj-9" vertex="1" connectable="0">
          <mxGeometry x="-0.1939" y="-2" relative="1" as="geometry">
            <mxPoint x="5" y="-12" as="offset" />
          </mxGeometry>
        </mxCell>
        <mxCell id="8BVao231dfBzDB3epPgj-10" value="" style="endArrow=classic;html=1;rounded=0;entryX=0.5;entryY=0;entryDx=0;entryDy=0;entryPerimeter=0;" parent="1" edge="1" target="7P_DYDdccwQ0DPqGcEVc-90">
          <mxGeometry width="50" height="50" relative="1" as="geometry">
            <mxPoint x="180" y="190" as="sourcePoint" />
            <mxPoint x="500" y="190" as="targetPoint" />
          </mxGeometry>
        </mxCell>
        <mxCell id="8BVao231dfBzDB3epPgj-13" value="Fetch_Outfit_Info()" style="edgeLabel;html=1;align=center;verticalAlign=middle;resizable=0;points=[];" parent="8BVao231dfBzDB3epPgj-10" vertex="1" connectable="0">
          <mxGeometry x="-0.1092" y="2" relative="1" as="geometry">
            <mxPoint x="186" y="-8" as="offset" />
          </mxGeometry>
        </mxCell>
        <mxCell id="8BVao231dfBzDB3epPgj-19" value="" style="endArrow=classic;html=1;rounded=0;entryX=0.599;entryY=0;entryDx=0;entryDy=0;entryPerimeter=0;" parent="1" edge="1" target="7P_DYDdccwQ0DPqGcEVc-8" source="7P_DYDdccwQ0DPqGcEVc-90">
          <mxGeometry width="50" height="50" relative="1" as="geometry">
            <mxPoint x="500" y="220" as="sourcePoint" />
            <mxPoint x="970" y="220" as="targetPoint" />
          </mxGeometry>
        </mxCell>
        <mxCell id="8BVao231dfBzDB3epPgj-20" value="OnClick()" style="edgeLabel;html=1;align=center;verticalAlign=middle;resizable=0;points=[];" parent="8BVao231dfBzDB3epPgj-19" vertex="1" connectable="0">
          <mxGeometry x="-0.1092" y="2" relative="1" as="geometry">
            <mxPoint x="95" y="-8" as="offset" />
          </mxGeometry>
        </mxCell>
        <mxCell id="8BVao231dfBzDB3epPgj-34" value="Κατάλληλο Μύνημα Σφάλματος (Διαθεσιμότητα)" style="html=1;whiteSpace=wrap;" parent="1" vertex="1">
          <mxGeometry x="1399.0100000000002" y="40" width="120" height="50" as="geometry" />
        </mxCell>
        <mxCell id="8BVao231dfBzDB3epPgj-35" value="Κατάλληλο Μύνημα Σφάλματος (Μέγεθος)" style="html=1;whiteSpace=wrap;" parent="1" vertex="1">
          <mxGeometry x="1559.0100000000002" y="40" width="120" height="50" as="geometry" />
        </mxCell>
        <mxCell id="8BVao231dfBzDB3epPgj-36" value="Κατάλληλο Μύνημα Σφάλματος (Μη Διαθεσιμότητα Μεγέθους)" style="html=1;whiteSpace=wrap;" parent="1" vertex="1">
          <mxGeometry x="1719.0100000000002" y="30" width="120" height="60" as="geometry" />
        </mxCell>
        <mxCell id="8BVao231dfBzDB3epPgj-37" value="" style="endArrow=none;dashed=1;html=1;rounded=0;" parent="1" edge="1" source="7P_DYDdccwQ0DPqGcEVc-15">
          <mxGeometry width="50" height="50" relative="1" as="geometry">
            <mxPoint x="1459.0100000000002" y="880" as="sourcePoint" />
            <mxPoint x="1458.5100000000002" y="90" as="targetPoint" />
          </mxGeometry>
        </mxCell>
        <mxCell id="8BVao231dfBzDB3epPgj-38" value="" style="endArrow=none;dashed=1;html=1;rounded=0;" parent="1" edge="1" source="7P_DYDdccwQ0DPqGcEVc-22">
          <mxGeometry width="50" height="50" relative="1" as="geometry">
            <mxPoint x="1619.0100000000002" y="880" as="sourcePoint" />
            <mxPoint x="1618.5100000000002" y="90" as="targetPoint" />
          </mxGeometry>
        </mxCell>
        <mxCell id="8BVao231dfBzDB3epPgj-39" value="" style="endArrow=none;dashed=1;html=1;rounded=0;" parent="1" edge="1" source="7P_DYDdccwQ0DPqGcEVc-24">
          <mxGeometry width="50" height="50" relative="1" as="geometry">
            <mxPoint x="1779.0100000000002" y="880" as="sourcePoint" />
            <mxPoint x="1778.5100000000002" y="90" as="targetPoint" />
          </mxGeometry>
        </mxCell>
        <mxCell id="8BVao231dfBzDB3epPgj-41" value="Κατάστημα" style="html=1;whiteSpace=wrap;" parent="1" vertex="1">
          <mxGeometry x="1079.0100000000002" y="40" width="120" height="50" as="geometry" />
        </mxCell>
        <mxCell id="8BVao231dfBzDB3epPgj-42" value="" style="endArrow=none;dashed=1;html=1;rounded=0;" parent="1" edge="1" source="7P_DYDdccwQ0DPqGcEVc-20">
          <mxGeometry width="50" height="50" relative="1" as="geometry">
            <mxPoint x="1138.0100000000002" y="880" as="sourcePoint" />
            <mxPoint x="1138.3400000000001" y="90" as="targetPoint" />
          </mxGeometry>
        </mxCell>
        <mxCell id="8BVao231dfBzDB3epPgj-44" value="" style="endArrow=classic;html=1;rounded=0;" parent="1" edge="1">
          <mxGeometry width="50" height="50" relative="1" as="geometry">
            <mxPoint x="979.0099999999999" y="400" as="sourcePoint" />
            <mxPoint x="1139.0100000000002" y="400" as="targetPoint" />
          </mxGeometry>
        </mxCell>
        <mxCell id="8BVao231dfBzDB3epPgj-45" value="Check_Availability()" style="edgeLabel;html=1;align=center;verticalAlign=middle;resizable=0;points=[];" parent="8BVao231dfBzDB3epPgj-44" vertex="1" connectable="0">
          <mxGeometry x="-0.1092" y="2" relative="1" as="geometry">
            <mxPoint y="-8" as="offset" />
          </mxGeometry>
        </mxCell>
        <mxCell id="8BVao231dfBzDB3epPgj-48" value="Return_Appoval()" style="html=1;verticalAlign=bottom;endArrow=open;dashed=1;endSize=8;curved=0;rounded=0;" parent="1" edge="1">
          <mxGeometry relative="1" as="geometry">
            <mxPoint x="1139.0100000000002" y="440" as="sourcePoint" />
            <mxPoint x="979.0099999999999" y="440" as="targetPoint" />
          </mxGeometry>
        </mxCell>
        <mxCell id="8BVao231dfBzDB3epPgj-49" value="" style="endArrow=classic;html=1;rounded=0;" parent="1" edge="1">
          <mxGeometry width="50" height="50" relative="1" as="geometry">
            <mxPoint x="979.0099999999999" y="460" as="sourcePoint" />
            <mxPoint x="1299.0100000000002" y="460" as="targetPoint" />
          </mxGeometry>
        </mxCell>
        <mxCell id="8BVao231dfBzDB3epPgj-50" value="Fetch_Measurements()" style="edgeLabel;html=1;align=center;verticalAlign=middle;resizable=0;points=[];" parent="8BVao231dfBzDB3epPgj-49" vertex="1" connectable="0">
          <mxGeometry x="-0.1092" y="2" relative="1" as="geometry">
            <mxPoint x="97" y="-8" as="offset" />
          </mxGeometry>
        </mxCell>
        <mxCell id="WPH6RaQTvUD2KASDTVv1-2" value="Return_Measurements()" style="html=1;verticalAlign=bottom;endArrow=open;dashed=1;endSize=8;curved=0;rounded=0;" parent="1" edge="1">
          <mxGeometry x="0.5" relative="1" as="geometry">
            <mxPoint x="1299.0100000000002" y="489.17" as="sourcePoint" />
            <mxPoint x="979.0099999999999" y="489.17" as="targetPoint" />
            <mxPoint as="offset" />
          </mxGeometry>
        </mxCell>
        <mxCell id="WPH6RaQTvUD2KASDTVv1-3" value="Σελίδα Ρυθμίσεων Χρήστη (Μεγέθοι Σώματος)" style="html=1;whiteSpace=wrap;" parent="1" vertex="1">
          <mxGeometry x="1239.0100000000002" y="40" width="120" height="50" as="geometry" />
        </mxCell>
        <mxCell id="WPH6RaQTvUD2KASDTVv1-4" value="" style="endArrow=none;dashed=1;html=1;rounded=0;" parent="1" edge="1" source="7P_DYDdccwQ0DPqGcEVc-81">
          <mxGeometry width="50" height="50" relative="1" as="geometry">
            <mxPoint x="1299.0100000000002" y="940" as="sourcePoint" />
            <mxPoint x="1298.5100000000002" y="90" as="targetPoint" />
          </mxGeometry>
        </mxCell>
        <mxCell id="WPH6RaQTvUD2KASDTVv1-5" value="" style="endArrow=classic;html=1;rounded=0;" parent="1" edge="1">
          <mxGeometry width="50" height="50" relative="1" as="geometry">
            <mxPoint x="979.0099999999999" y="540" as="sourcePoint" />
            <mxPoint x="1139.0100000000002" y="540" as="targetPoint" />
          </mxGeometry>
        </mxCell>
        <mxCell id="WPH6RaQTvUD2KASDTVv1-6" value="Check_Size_Availability()" style="edgeLabel;html=1;align=center;verticalAlign=middle;resizable=0;points=[];" parent="WPH6RaQTvUD2KASDTVv1-5" vertex="1" connectable="0">
          <mxGeometry x="-0.1092" y="2" relative="1" as="geometry">
            <mxPoint x="9" y="-8" as="offset" />
          </mxGeometry>
        </mxCell>
        <mxCell id="WPH6RaQTvUD2KASDTVv1-7" value="Return_Value()" style="html=1;verticalAlign=bottom;endArrow=open;dashed=1;endSize=8;curved=0;rounded=0;" parent="1" edge="1">
          <mxGeometry relative="1" as="geometry">
            <mxPoint x="1139.0100000000002" y="580" as="sourcePoint" />
            <mxPoint x="979.0099999999999" y="580" as="targetPoint" />
          </mxGeometry>
        </mxCell>
        <mxCell id="WPH6RaQTvUD2KASDTVv1-8" value="" style="endArrow=classic;html=1;rounded=0;" parent="1" edge="1">
          <mxGeometry width="50" height="50" relative="1" as="geometry">
            <mxPoint x="979.0099999999999" y="930" as="sourcePoint" />
            <mxPoint x="1939.0100000000002" y="930" as="targetPoint" />
          </mxGeometry>
        </mxCell>
        <mxCell id="WPH6RaQTvUD2KASDTVv1-9" value="Redirect()" style="edgeLabel;html=1;align=center;verticalAlign=middle;resizable=0;points=[];" parent="WPH6RaQTvUD2KASDTVv1-8" vertex="1" connectable="0">
          <mxGeometry x="-0.1092" y="2" relative="1" as="geometry">
            <mxPoint x="452" y="-8" as="offset" />
          </mxGeometry>
        </mxCell>
        <mxCell id="WPH6RaQTvUD2KASDTVv1-10" value="" style="endArrow=classic;html=1;rounded=0;" parent="1" edge="1">
          <mxGeometry width="50" height="50" relative="1" as="geometry">
            <mxPoint x="1139.0100000000002" y="420" as="sourcePoint" />
            <mxPoint x="1459.0100000000002" y="420" as="targetPoint" />
          </mxGeometry>
        </mxCell>
        <mxCell id="WPH6RaQTvUD2KASDTVv1-11" value="Show()" style="edgeLabel;html=1;align=center;verticalAlign=middle;resizable=0;points=[];" parent="WPH6RaQTvUD2KASDTVv1-10" vertex="1" connectable="0">
          <mxGeometry x="0.4075" y="-2" relative="1" as="geometry">
            <mxPoint x="5" y="-12" as="offset" />
          </mxGeometry>
        </mxCell>
        <mxCell id="WPH6RaQTvUD2KASDTVv1-12" value="" style="endArrow=classic;html=1;rounded=0;" parent="1" edge="1">
          <mxGeometry width="50" height="50" relative="1" as="geometry">
            <mxPoint x="1304.0100000000002" y="480" as="sourcePoint" />
            <mxPoint x="1619.0100000000002" y="480" as="targetPoint" />
          </mxGeometry>
        </mxCell>
        <mxCell id="WPH6RaQTvUD2KASDTVv1-13" value="Show()" style="edgeLabel;html=1;align=center;verticalAlign=middle;resizable=0;points=[];" parent="WPH6RaQTvUD2KASDTVv1-12" vertex="1" connectable="0">
          <mxGeometry x="0.4075" y="-2" relative="1" as="geometry">
            <mxPoint x="5" y="-12" as="offset" />
          </mxGeometry>
        </mxCell>
        <mxCell id="WPH6RaQTvUD2KASDTVv1-14" value="" style="endArrow=classic;html=1;rounded=0;" parent="1" edge="1">
          <mxGeometry width="50" height="50" relative="1" as="geometry">
            <mxPoint x="1139.0100000000002" y="560" as="sourcePoint" />
            <mxPoint x="1779.0100000000002" y="560" as="targetPoint" />
          </mxGeometry>
        </mxCell>
        <mxCell id="WPH6RaQTvUD2KASDTVv1-15" value="Show()" style="edgeLabel;html=1;align=center;verticalAlign=middle;resizable=0;points=[];" parent="WPH6RaQTvUD2KASDTVv1-14" vertex="1" connectable="0">
          <mxGeometry x="0.4075" y="-2" relative="1" as="geometry">
            <mxPoint x="110" y="-12" as="offset" />
          </mxGeometry>
        </mxCell>
        <mxCell id="WPH6RaQTvUD2KASDTVv1-16" value="Redirect()" style="html=1;verticalAlign=bottom;endArrow=open;dashed=1;endSize=8;curved=0;rounded=0;" parent="1" edge="1">
          <mxGeometry x="0.5" relative="1" as="geometry">
            <mxPoint x="1619.0100000000002" y="510" as="sourcePoint" />
            <mxPoint x="1299.0100000000002" y="510" as="targetPoint" />
            <mxPoint as="offset" />
          </mxGeometry>
        </mxCell>
        <mxCell id="WPH6RaQTvUD2KASDTVv1-33" value="Σελίδα Εμφάνισης Αποτελεσμάτων" style="html=1;whiteSpace=wrap;" parent="1" vertex="1">
          <mxGeometry x="440" y="40" width="120" height="50" as="geometry" />
        </mxCell>
        <mxCell id="WPH6RaQTvUD2KASDTVv1-34" value="" style="endArrow=none;dashed=1;html=1;rounded=0;" parent="1" edge="1">
          <mxGeometry width="50" height="50" relative="1" as="geometry">
            <mxPoint x="659" y="320" as="sourcePoint" />
            <mxPoint x="659.29" y="90" as="targetPoint" />
          </mxGeometry>
        </mxCell>
        <mxCell id="WPH6RaQTvUD2KASDTVv1-35" value="Σελίδα Φιλτραρίσματος Αναζήτησης" style="html=1;whiteSpace=wrap;" parent="1" vertex="1">
          <mxGeometry x="280" y="40" width="120" height="50" as="geometry" />
        </mxCell>
        <mxCell id="WPH6RaQTvUD2KASDTVv1-36" value="" style="endArrow=none;dashed=1;html=1;rounded=0;" parent="1" edge="1" source="7P_DYDdccwQ0DPqGcEVc-44">
          <mxGeometry width="50" height="50" relative="1" as="geometry">
            <mxPoint x="340" y="760" as="sourcePoint" />
            <mxPoint x="339.28999999999996" y="90" as="targetPoint" />
          </mxGeometry>
        </mxCell>
        <mxCell id="WPH6RaQTvUD2KASDTVv1-37" value="" style="endArrow=classic;html=1;rounded=0;" parent="1" edge="1">
          <mxGeometry width="50" height="50" relative="1" as="geometry">
            <mxPoint x="185" y="269.58" as="sourcePoint" />
            <mxPoint x="340" y="270" as="targetPoint" />
          </mxGeometry>
        </mxCell>
        <mxCell id="WPH6RaQTvUD2KASDTVv1-38" value="DressUP()" style="edgeLabel;html=1;align=center;verticalAlign=middle;resizable=0;points=[];" parent="WPH6RaQTvUD2KASDTVv1-37" vertex="1" connectable="0">
          <mxGeometry x="-0.1092" y="2" relative="1" as="geometry">
            <mxPoint y="-8" as="offset" />
          </mxGeometry>
        </mxCell>
        <mxCell id="WPH6RaQTvUD2KASDTVv1-39" value="" style="endArrow=classic;html=1;rounded=0;" parent="1" edge="1">
          <mxGeometry width="50" height="50" relative="1" as="geometry">
            <mxPoint x="340" y="289.17" as="sourcePoint" />
            <mxPoint x="500" y="289" as="targetPoint" />
          </mxGeometry>
        </mxCell>
        <mxCell id="WPH6RaQTvUD2KASDTVv1-40" value="Filtering()" style="edgeLabel;html=1;align=center;verticalAlign=middle;resizable=0;points=[];" parent="WPH6RaQTvUD2KASDTVv1-39" vertex="1" connectable="0">
          <mxGeometry x="-0.1092" y="2" relative="1" as="geometry">
            <mxPoint x="18" y="-7" as="offset" />
          </mxGeometry>
        </mxCell>
        <mxCell id="WPH6RaQTvUD2KASDTVv1-41" value="" style="endArrow=classic;html=1;rounded=0;" parent="1" edge="1">
          <mxGeometry width="50" height="50" relative="1" as="geometry">
            <mxPoint x="505" y="310" as="sourcePoint" />
            <mxPoint x="970" y="310" as="targetPoint" />
          </mxGeometry>
        </mxCell>
        <mxCell id="WPH6RaQTvUD2KASDTVv1-42" value="OnClick()" style="edgeLabel;html=1;align=center;verticalAlign=middle;resizable=0;points=[];" parent="WPH6RaQTvUD2KASDTVv1-41" vertex="1" connectable="0">
          <mxGeometry x="-0.1092" y="2" relative="1" as="geometry">
            <mxPoint x="188" y="-8" as="offset" />
          </mxGeometry>
        </mxCell>
        <mxCell id="lsNzPfz-fl1_cLYY8Ib9-1" value="" style="endArrow=none;dashed=1;html=1;rounded=0;" parent="1" target="lsNzPfz-fl1_cLYY8Ib9-2" edge="1">
          <mxGeometry width="50" height="50" relative="1" as="geometry">
            <mxPoint x="60" y="940" as="sourcePoint" />
            <mxPoint x="70" y="120" as="targetPoint" />
          </mxGeometry>
        </mxCell>
        <mxCell id="lsNzPfz-fl1_cLYY8Ib9-2" value="" style="html=1;points=[[0,0,0,0,5],[0,1,0,0,-5],[1,0,0,0,5],[1,1,0,0,-5]];perimeter=orthogonalPerimeter;outlineConnect=0;targetShapes=umlLifeline;portConstraint=eastwest;newEdgeStyle={&quot;curved&quot;:0,&quot;rounded&quot;:0};" parent="1" vertex="1">
          <mxGeometry x="65" y="140" width="10" height="20" as="geometry" />
        </mxCell>
        <mxCell id="7P_DYDdccwQ0DPqGcEVc-5" value="" style="endArrow=none;dashed=1;html=1;rounded=0;" edge="1" parent="1" target="7P_DYDdccwQ0DPqGcEVc-1">
          <mxGeometry width="50" height="50" relative="1" as="geometry">
            <mxPoint x="180" y="940" as="sourcePoint" />
            <mxPoint x="179.5" y="90" as="targetPoint" />
          </mxGeometry>
        </mxCell>
        <mxCell id="7P_DYDdccwQ0DPqGcEVc-1" value="" style="html=1;points=[[0,0,0,0,5],[0,1,0,0,-5],[1,0,0,0,5],[1,1,0,0,-5]];perimeter=orthogonalPerimeter;outlineConnect=0;targetShapes=umlLifeline;portConstraint=eastwest;newEdgeStyle={&quot;curved&quot;:0,&quot;rounded&quot;:0};" vertex="1" parent="1">
          <mxGeometry x="175" y="140" width="10" height="490" as="geometry" />
        </mxCell>
        <mxCell id="7P_DYDdccwQ0DPqGcEVc-7" value="" style="endArrow=none;dashed=1;html=1;rounded=0;" edge="1" parent="1">
          <mxGeometry width="50" height="50" relative="1" as="geometry">
            <mxPoint x="500" y="940" as="sourcePoint" />
            <mxPoint x="500" y="190" as="targetPoint" />
          </mxGeometry>
        </mxCell>
        <mxCell id="7P_DYDdccwQ0DPqGcEVc-9" value="" style="endArrow=none;dashed=1;html=1;rounded=0;" edge="1" parent="1" target="7P_DYDdccwQ0DPqGcEVc-8">
          <mxGeometry width="50" height="50" relative="1" as="geometry">
            <mxPoint x="979.0099999999999" y="900" as="sourcePoint" />
            <mxPoint x="979.0099999999999" y="580" as="targetPoint" />
          </mxGeometry>
        </mxCell>
        <mxCell id="7P_DYDdccwQ0DPqGcEVc-8" value="" style="html=1;points=[[0,0,0,0,5],[0,1,0,0,-5],[1,0,0,0,5],[1,1,0,0,-5]];perimeter=orthogonalPerimeter;outlineConnect=0;targetShapes=umlLifeline;portConstraint=eastwest;newEdgeStyle={&quot;curved&quot;:0,&quot;rounded&quot;:0};" vertex="1" parent="1">
          <mxGeometry x="974.01" y="220" width="10" height="710" as="geometry" />
        </mxCell>
        <mxCell id="7P_DYDdccwQ0DPqGcEVc-13" value="" style="endArrow=none;dashed=1;html=1;rounded=0;" edge="1" parent="1" target="7P_DYDdccwQ0DPqGcEVc-12">
          <mxGeometry width="50" height="50" relative="1" as="geometry">
            <mxPoint x="1939.0100000000002" y="940" as="sourcePoint" />
            <mxPoint x="1938.5100000000002" y="145" as="targetPoint" />
          </mxGeometry>
        </mxCell>
        <mxCell id="7P_DYDdccwQ0DPqGcEVc-12" value="" style="html=1;points=[[0,0,0,0,5],[0,1,0,0,-5],[1,0,0,0,5],[1,1,0,0,-5]];perimeter=orthogonalPerimeter;outlineConnect=0;targetShapes=umlLifeline;portConstraint=eastwest;newEdgeStyle={&quot;curved&quot;:0,&quot;rounded&quot;:0};" vertex="1" parent="1">
          <mxGeometry x="1934.0100000000002" y="930" width="10" height="10" as="geometry" />
        </mxCell>
        <mxCell id="7P_DYDdccwQ0DPqGcEVc-14" value="" style="html=1;points=[[0,0,0,0,5],[0,1,0,0,-5],[1,0,0,0,5],[1,1,0,0,-5]];perimeter=orthogonalPerimeter;outlineConnect=0;targetShapes=umlLifeline;portConstraint=eastwest;newEdgeStyle={&quot;curved&quot;:0,&quot;rounded&quot;:0};" vertex="1" parent="1">
          <mxGeometry x="1134.0100000000002" y="400" width="10" height="40" as="geometry" />
        </mxCell>
        <mxCell id="7P_DYDdccwQ0DPqGcEVc-16" value="" style="endArrow=none;dashed=1;html=1;rounded=0;" edge="1" parent="1" target="7P_DYDdccwQ0DPqGcEVc-15">
          <mxGeometry width="50" height="50" relative="1" as="geometry">
            <mxPoint x="1459.0100000000002" y="690" as="sourcePoint" />
            <mxPoint x="1458.5100000000002" y="150" as="targetPoint" />
          </mxGeometry>
        </mxCell>
        <mxCell id="7P_DYDdccwQ0DPqGcEVc-15" value="" style="html=1;points=[[0,0,0,0,5],[0,1,0,0,-5],[1,0,0,0,5],[1,1,0,0,-5]];perimeter=orthogonalPerimeter;outlineConnect=0;targetShapes=umlLifeline;portConstraint=eastwest;newEdgeStyle={&quot;curved&quot;:0,&quot;rounded&quot;:0};" vertex="1" parent="1">
          <mxGeometry x="1454.0100000000002" y="420" width="10" height="10" as="geometry" />
        </mxCell>
        <mxCell id="7P_DYDdccwQ0DPqGcEVc-18" value="" style="endArrow=classic;html=1;rounded=0;" edge="1" parent="1" target="7P_DYDdccwQ0DPqGcEVc-17">
          <mxGeometry width="50" height="50" relative="1" as="geometry">
            <mxPoint x="1299.0100000000002" y="480" as="sourcePoint" />
            <mxPoint x="1619.0100000000002" y="480" as="targetPoint" />
          </mxGeometry>
        </mxCell>
        <mxCell id="7P_DYDdccwQ0DPqGcEVc-17" value="" style="html=1;points=[[0,0,0,0,5],[0,1,0,0,-5],[1,0,0,0,5],[1,1,0,0,-5]];perimeter=orthogonalPerimeter;outlineConnect=0;targetShapes=umlLifeline;portConstraint=eastwest;newEdgeStyle={&quot;curved&quot;:0,&quot;rounded&quot;:0};fontStyle=1" vertex="1" parent="1">
          <mxGeometry x="1294.0100000000002" y="460" width="10" height="60" as="geometry" />
        </mxCell>
        <mxCell id="7P_DYDdccwQ0DPqGcEVc-21" value="" style="endArrow=none;dashed=1;html=1;rounded=0;" edge="1" parent="1" source="7P_DYDdccwQ0DPqGcEVc-78" target="7P_DYDdccwQ0DPqGcEVc-20">
          <mxGeometry width="50" height="50" relative="1" as="geometry">
            <mxPoint x="1139.0100000000002" y="840" as="sourcePoint" />
            <mxPoint x="1138.3400000000001" y="150" as="targetPoint" />
          </mxGeometry>
        </mxCell>
        <mxCell id="7P_DYDdccwQ0DPqGcEVc-20" value="" style="html=1;points=[[0,0,0,0,5],[0,1,0,0,-5],[1,0,0,0,5],[1,1,0,0,-5]];perimeter=orthogonalPerimeter;outlineConnect=0;targetShapes=umlLifeline;portConstraint=eastwest;newEdgeStyle={&quot;curved&quot;:0,&quot;rounded&quot;:0};" vertex="1" parent="1">
          <mxGeometry x="1134.0100000000002" y="540" width="10" height="40" as="geometry" />
        </mxCell>
        <mxCell id="7P_DYDdccwQ0DPqGcEVc-23" value="" style="endArrow=none;dashed=1;html=1;rounded=0;" edge="1" parent="1" target="7P_DYDdccwQ0DPqGcEVc-22">
          <mxGeometry width="50" height="50" relative="1" as="geometry">
            <mxPoint x="1619.0100000000002" y="770" as="sourcePoint" />
            <mxPoint x="1618.5100000000002" y="150" as="targetPoint" />
          </mxGeometry>
        </mxCell>
        <mxCell id="7P_DYDdccwQ0DPqGcEVc-22" value="" style="html=1;points=[[0,0,0,0,5],[0,1,0,0,-5],[1,0,0,0,5],[1,1,0,0,-5]];perimeter=orthogonalPerimeter;outlineConnect=0;targetShapes=umlLifeline;portConstraint=eastwest;newEdgeStyle={&quot;curved&quot;:0,&quot;rounded&quot;:0};" vertex="1" parent="1">
          <mxGeometry x="1614.0100000000002" y="480" width="10" height="30" as="geometry" />
        </mxCell>
        <mxCell id="7P_DYDdccwQ0DPqGcEVc-25" value="" style="endArrow=none;dashed=1;html=1;rounded=0;" edge="1" parent="1" target="7P_DYDdccwQ0DPqGcEVc-24">
          <mxGeometry width="50" height="50" relative="1" as="geometry">
            <mxPoint x="1779.0100000000002" y="830" as="sourcePoint" />
            <mxPoint x="1778.5100000000002" y="150" as="targetPoint" />
          </mxGeometry>
        </mxCell>
        <mxCell id="7P_DYDdccwQ0DPqGcEVc-24" value="" style="html=1;points=[[0,0,0,0,5],[0,1,0,0,-5],[1,0,0,0,5],[1,1,0,0,-5]];perimeter=orthogonalPerimeter;outlineConnect=0;targetShapes=umlLifeline;portConstraint=eastwest;newEdgeStyle={&quot;curved&quot;:0,&quot;rounded&quot;:0};" vertex="1" parent="1">
          <mxGeometry x="1774.01" y="560" width="10" height="40" as="geometry" />
        </mxCell>
        <mxCell id="7P_DYDdccwQ0DPqGcEVc-29" value="" style="endArrow=none;dashed=1;html=1;rounded=0;" edge="1" parent="1" source="7P_DYDdccwQ0DPqGcEVc-82">
          <mxGeometry width="50" height="50" relative="1" as="geometry">
            <mxPoint x="1138.0100000000002" y="940" as="sourcePoint" />
            <mxPoint x="1138.0100000000002" y="840" as="targetPoint" />
          </mxGeometry>
        </mxCell>
        <mxCell id="7P_DYDdccwQ0DPqGcEVc-31" value="" style="endArrow=none;dashed=1;html=1;rounded=0;" edge="1" parent="1" source="7P_DYDdccwQ0DPqGcEVc-79">
          <mxGeometry width="50" height="50" relative="1" as="geometry">
            <mxPoint x="1459.0100000000002" y="940" as="sourcePoint" />
            <mxPoint x="1459.0100000000002" y="690" as="targetPoint" />
          </mxGeometry>
        </mxCell>
        <mxCell id="7P_DYDdccwQ0DPqGcEVc-41" value="" style="endArrow=none;dashed=1;html=1;rounded=0;" edge="1" parent="1">
          <mxGeometry width="50" height="50" relative="1" as="geometry">
            <mxPoint x="1619.0100000000002" y="940" as="sourcePoint" />
            <mxPoint x="1619.0100000000002" y="760" as="targetPoint" />
          </mxGeometry>
        </mxCell>
        <mxCell id="7P_DYDdccwQ0DPqGcEVc-43" value="" style="endArrow=none;dashed=1;html=1;rounded=0;" edge="1" parent="1">
          <mxGeometry width="50" height="50" relative="1" as="geometry">
            <mxPoint x="1779.0100000000002" y="940" as="sourcePoint" />
            <mxPoint x="1779.0099999999998" y="830" as="targetPoint" />
          </mxGeometry>
        </mxCell>
        <mxCell id="7P_DYDdccwQ0DPqGcEVc-45" value="" style="endArrow=none;dashed=1;html=1;rounded=0;" edge="1" parent="1" target="7P_DYDdccwQ0DPqGcEVc-44">
          <mxGeometry width="50" height="50" relative="1" as="geometry">
            <mxPoint x="340" y="940" as="sourcePoint" />
            <mxPoint x="339.28999999999996" y="90" as="targetPoint" />
          </mxGeometry>
        </mxCell>
        <mxCell id="7P_DYDdccwQ0DPqGcEVc-44" value="" style="html=1;points=[[0,0,0,0,5],[0,1,0,0,-5],[1,0,0,0,5],[1,1,0,0,-5]];perimeter=orthogonalPerimeter;outlineConnect=0;targetShapes=umlLifeline;portConstraint=eastwest;newEdgeStyle={&quot;curved&quot;:0,&quot;rounded&quot;:0};" vertex="1" parent="1">
          <mxGeometry x="335" y="270" width="10" height="20" as="geometry" />
        </mxCell>
        <mxCell id="7P_DYDdccwQ0DPqGcEVc-49" value="" style="endArrow=none;dashed=1;html=1;rounded=0;" edge="1" parent="1">
          <mxGeometry width="50" height="50" relative="1" as="geometry">
            <mxPoint x="659" y="940" as="sourcePoint" />
            <mxPoint x="659" y="310" as="targetPoint" />
          </mxGeometry>
        </mxCell>
        <mxCell id="7P_DYDdccwQ0DPqGcEVc-50" value="Alt" style="shape=umlFrame;whiteSpace=wrap;html=1;pointerEvents=0;" vertex="1" parent="1">
          <mxGeometry x="80" y="150" width="950" height="170" as="geometry" />
        </mxCell>
        <mxCell id="7P_DYDdccwQ0DPqGcEVc-51" value="" style="endArrow=none;dashed=1;html=1;rounded=0;entryX=1.001;entryY=0.512;entryDx=0;entryDy=0;entryPerimeter=0;exitX=-0.002;exitY=0.502;exitDx=0;exitDy=0;exitPerimeter=0;" edge="1" parent="1" source="7P_DYDdccwQ0DPqGcEVc-50" target="7P_DYDdccwQ0DPqGcEVc-50">
          <mxGeometry width="50" height="50" relative="1" as="geometry">
            <mxPoint x="106.72000000000016" y="235.42000000000016" as="sourcePoint" />
            <mxPoint x="843.2899999999996" y="234.57000000000002" as="targetPoint" />
          </mxGeometry>
        </mxCell>
        <mxCell id="7P_DYDdccwQ0DPqGcEVc-54" value="&lt;b&gt;[Επιλογή από Αρχική Σελίδα]&lt;/b&gt;" style="text;html=1;align=center;verticalAlign=middle;whiteSpace=wrap;rounded=0;" vertex="1" parent="1">
          <mxGeometry x="90" y="190" width="75" height="30" as="geometry" />
        </mxCell>
        <mxCell id="7P_DYDdccwQ0DPqGcEVc-57" value="&lt;b&gt;[Επιλογή από Σελίδα Εμφάνισης Αποτελεσμάτων]&lt;/b&gt;" style="text;html=1;align=center;verticalAlign=middle;whiteSpace=wrap;rounded=0;" vertex="1" parent="1">
          <mxGeometry x="80" y="250" width="95" height="30" as="geometry" />
        </mxCell>
        <mxCell id="7P_DYDdccwQ0DPqGcEVc-62" value="" style="endArrow=classic;html=1;rounded=0;" edge="1" parent="1" source="7P_DYDdccwQ0DPqGcEVc-8">
          <mxGeometry width="50" height="50" relative="1" as="geometry">
            <mxPoint x="990" y="680" as="sourcePoint" />
            <mxPoint x="1134.0100000000002" y="680" as="targetPoint" />
          </mxGeometry>
        </mxCell>
        <mxCell id="7P_DYDdccwQ0DPqGcEVc-63" value="Check_Availability()" style="edgeLabel;html=1;align=center;verticalAlign=middle;resizable=0;points=[];" vertex="1" connectable="0" parent="7P_DYDdccwQ0DPqGcEVc-62">
          <mxGeometry x="-0.1092" y="2" relative="1" as="geometry">
            <mxPoint y="-8" as="offset" />
          </mxGeometry>
        </mxCell>
        <mxCell id="7P_DYDdccwQ0DPqGcEVc-64" value="Return_Appoval()" style="html=1;verticalAlign=bottom;endArrow=open;dashed=1;endSize=8;curved=0;rounded=0;" edge="1" parent="1" target="7P_DYDdccwQ0DPqGcEVc-8">
          <mxGeometry relative="1" as="geometry">
            <mxPoint x="1134.0100000000002" y="720" as="sourcePoint" />
            <mxPoint x="990" y="720" as="targetPoint" />
          </mxGeometry>
        </mxCell>
        <mxCell id="7P_DYDdccwQ0DPqGcEVc-65" value="" style="endArrow=classic;html=1;rounded=0;" edge="1" parent="1" source="7P_DYDdccwQ0DPqGcEVc-8">
          <mxGeometry width="50" height="50" relative="1" as="geometry">
            <mxPoint x="990" y="740" as="sourcePoint" />
            <mxPoint x="1294.0100000000002" y="740" as="targetPoint" />
          </mxGeometry>
        </mxCell>
        <mxCell id="7P_DYDdccwQ0DPqGcEVc-66" value="Fetch_Measurements()" style="edgeLabel;html=1;align=center;verticalAlign=middle;resizable=0;points=[];" vertex="1" connectable="0" parent="7P_DYDdccwQ0DPqGcEVc-65">
          <mxGeometry x="-0.1092" y="2" relative="1" as="geometry">
            <mxPoint x="97" y="-8" as="offset" />
          </mxGeometry>
        </mxCell>
        <mxCell id="7P_DYDdccwQ0DPqGcEVc-67" value="Return_Measurements()" style="html=1;verticalAlign=bottom;endArrow=open;dashed=1;endSize=8;curved=0;rounded=0;" edge="1" parent="1" target="7P_DYDdccwQ0DPqGcEVc-8">
          <mxGeometry x="0.5" relative="1" as="geometry">
            <mxPoint x="1294.0100000000002" y="769.1700000000001" as="sourcePoint" />
            <mxPoint x="990" y="769" as="targetPoint" />
            <mxPoint as="offset" />
          </mxGeometry>
        </mxCell>
        <mxCell id="7P_DYDdccwQ0DPqGcEVc-68" value="" style="endArrow=classic;html=1;rounded=0;" edge="1" parent="1" source="7P_DYDdccwQ0DPqGcEVc-8">
          <mxGeometry width="50" height="50" relative="1" as="geometry">
            <mxPoint x="990" y="820" as="sourcePoint" />
            <mxPoint x="1134.0100000000002" y="820" as="targetPoint" />
          </mxGeometry>
        </mxCell>
        <mxCell id="7P_DYDdccwQ0DPqGcEVc-69" value="Check_Size_Availability()" style="edgeLabel;html=1;align=center;verticalAlign=middle;resizable=0;points=[];" vertex="1" connectable="0" parent="7P_DYDdccwQ0DPqGcEVc-68">
          <mxGeometry x="-0.1092" y="2" relative="1" as="geometry">
            <mxPoint x="9" y="-8" as="offset" />
          </mxGeometry>
        </mxCell>
        <mxCell id="7P_DYDdccwQ0DPqGcEVc-70" value="Return_Value()" style="html=1;verticalAlign=bottom;endArrow=open;dashed=1;endSize=8;curved=0;rounded=0;" edge="1" parent="1" target="7P_DYDdccwQ0DPqGcEVc-8">
          <mxGeometry relative="1" as="geometry">
            <mxPoint x="1134.0100000000002" y="860" as="sourcePoint" />
            <mxPoint x="990" y="860" as="targetPoint" />
          </mxGeometry>
        </mxCell>
        <mxCell id="7P_DYDdccwQ0DPqGcEVc-71" value="" style="endArrow=classic;html=1;rounded=0;" edge="1" parent="1">
          <mxGeometry width="50" height="50" relative="1" as="geometry">
            <mxPoint x="1134.0100000000002" y="700" as="sourcePoint" />
            <mxPoint x="1454.0100000000002" y="700" as="targetPoint" />
          </mxGeometry>
        </mxCell>
        <mxCell id="7P_DYDdccwQ0DPqGcEVc-72" value="Show()" style="edgeLabel;html=1;align=center;verticalAlign=middle;resizable=0;points=[];" vertex="1" connectable="0" parent="7P_DYDdccwQ0DPqGcEVc-71">
          <mxGeometry x="0.4075" y="-2" relative="1" as="geometry">
            <mxPoint x="5" y="-12" as="offset" />
          </mxGeometry>
        </mxCell>
        <mxCell id="7P_DYDdccwQ0DPqGcEVc-73" value="" style="endArrow=classic;html=1;rounded=0;" edge="1" parent="1">
          <mxGeometry width="50" height="50" relative="1" as="geometry">
            <mxPoint x="1299.0100000000002" y="760" as="sourcePoint" />
            <mxPoint x="1614.0100000000002" y="760" as="targetPoint" />
          </mxGeometry>
        </mxCell>
        <mxCell id="7P_DYDdccwQ0DPqGcEVc-74" value="Show()" style="edgeLabel;html=1;align=center;verticalAlign=middle;resizable=0;points=[];" vertex="1" connectable="0" parent="7P_DYDdccwQ0DPqGcEVc-73">
          <mxGeometry x="0.4075" y="-2" relative="1" as="geometry">
            <mxPoint x="5" y="-12" as="offset" />
          </mxGeometry>
        </mxCell>
        <mxCell id="7P_DYDdccwQ0DPqGcEVc-75" value="" style="endArrow=classic;html=1;rounded=0;" edge="1" parent="1">
          <mxGeometry width="50" height="50" relative="1" as="geometry">
            <mxPoint x="1134.0100000000002" y="840" as="sourcePoint" />
            <mxPoint x="1779.0100000000002" y="840" as="targetPoint" />
          </mxGeometry>
        </mxCell>
        <mxCell id="7P_DYDdccwQ0DPqGcEVc-76" value="Show()" style="edgeLabel;html=1;align=center;verticalAlign=middle;resizable=0;points=[];" vertex="1" connectable="0" parent="7P_DYDdccwQ0DPqGcEVc-75">
          <mxGeometry x="0.4075" y="-2" relative="1" as="geometry">
            <mxPoint x="110" y="-12" as="offset" />
          </mxGeometry>
        </mxCell>
        <mxCell id="7P_DYDdccwQ0DPqGcEVc-77" value="Redirect()" style="html=1;verticalAlign=bottom;endArrow=open;dashed=1;endSize=8;curved=0;rounded=0;" edge="1" parent="1" target="7P_DYDdccwQ0DPqGcEVc-81">
          <mxGeometry x="0.5" relative="1" as="geometry">
            <mxPoint x="1614.0100000000002" y="790" as="sourcePoint" />
            <mxPoint x="1294.0100000000002" y="790" as="targetPoint" />
            <mxPoint as="offset" />
          </mxGeometry>
        </mxCell>
        <mxCell id="7P_DYDdccwQ0DPqGcEVc-80" value="" style="endArrow=classic;html=1;rounded=0;" edge="1" parent="1" target="7P_DYDdccwQ0DPqGcEVc-81">
          <mxGeometry width="50" height="50" relative="1" as="geometry">
            <mxPoint x="1294.0100000000002" y="760" as="sourcePoint" />
            <mxPoint x="1614.0100000000002" y="760" as="targetPoint" />
          </mxGeometry>
        </mxCell>
        <mxCell id="7P_DYDdccwQ0DPqGcEVc-83" value="" style="html=1;points=[[0,0,0,0,5],[0,1,0,0,-5],[1,0,0,0,5],[1,1,0,0,-5]];perimeter=orthogonalPerimeter;outlineConnect=0;targetShapes=umlLifeline;portConstraint=eastwest;newEdgeStyle={&quot;curved&quot;:0,&quot;rounded&quot;:0};" vertex="1" parent="1">
          <mxGeometry x="1614.0100000000002" y="760" width="10" height="30" as="geometry" />
        </mxCell>
        <mxCell id="7P_DYDdccwQ0DPqGcEVc-84" value="" style="endArrow=none;dashed=1;html=1;rounded=0;" edge="1" parent="1" target="7P_DYDdccwQ0DPqGcEVc-78">
          <mxGeometry width="50" height="50" relative="1" as="geometry">
            <mxPoint x="1139.0100000000002" y="840" as="sourcePoint" />
            <mxPoint x="1139.0100000000002" y="580" as="targetPoint" />
          </mxGeometry>
        </mxCell>
        <mxCell id="7P_DYDdccwQ0DPqGcEVc-78" value="" style="html=1;points=[[0,0,0,0,5],[0,1,0,0,-5],[1,0,0,0,5],[1,1,0,0,-5]];perimeter=orthogonalPerimeter;outlineConnect=0;targetShapes=umlLifeline;portConstraint=eastwest;newEdgeStyle={&quot;curved&quot;:0,&quot;rounded&quot;:0};" vertex="1" parent="1">
          <mxGeometry x="1134.0100000000002" y="680" width="10" height="40" as="geometry" />
        </mxCell>
        <mxCell id="7P_DYDdccwQ0DPqGcEVc-85" value="" style="endArrow=none;dashed=1;html=1;rounded=0;" edge="1" parent="1" target="7P_DYDdccwQ0DPqGcEVc-82">
          <mxGeometry width="50" height="50" relative="1" as="geometry">
            <mxPoint x="1138.0100000000002" y="940" as="sourcePoint" />
            <mxPoint x="1138.0100000000002" y="840" as="targetPoint" />
          </mxGeometry>
        </mxCell>
        <mxCell id="7P_DYDdccwQ0DPqGcEVc-82" value="" style="html=1;points=[[0,0,0,0,5],[0,1,0,0,-5],[1,0,0,0,5],[1,1,0,0,-5]];perimeter=orthogonalPerimeter;outlineConnect=0;targetShapes=umlLifeline;portConstraint=eastwest;newEdgeStyle={&quot;curved&quot;:0,&quot;rounded&quot;:0};" vertex="1" parent="1">
          <mxGeometry x="1134.0100000000002" y="820" width="10" height="40" as="geometry" />
        </mxCell>
        <mxCell id="7P_DYDdccwQ0DPqGcEVc-86" value="" style="endArrow=none;dashed=1;html=1;rounded=0;" edge="1" parent="1" target="7P_DYDdccwQ0DPqGcEVc-79">
          <mxGeometry width="50" height="50" relative="1" as="geometry">
            <mxPoint x="1459.0100000000002" y="940" as="sourcePoint" />
            <mxPoint x="1459.0100000000002" y="690" as="targetPoint" />
          </mxGeometry>
        </mxCell>
        <mxCell id="7P_DYDdccwQ0DPqGcEVc-79" value="" style="html=1;points=[[0,0,0,0,5],[0,1,0,0,-5],[1,0,0,0,5],[1,1,0,0,-5]];perimeter=orthogonalPerimeter;outlineConnect=0;targetShapes=umlLifeline;portConstraint=eastwest;newEdgeStyle={&quot;curved&quot;:0,&quot;rounded&quot;:0};" vertex="1" parent="1">
          <mxGeometry x="1454.0100000000002" y="700" width="10" height="10" as="geometry" />
        </mxCell>
        <mxCell id="7P_DYDdccwQ0DPqGcEVc-87" value="" style="endArrow=none;dashed=1;html=1;rounded=0;" edge="1" parent="1" target="7P_DYDdccwQ0DPqGcEVc-81">
          <mxGeometry width="50" height="50" relative="1" as="geometry">
            <mxPoint x="1299.0100000000002" y="940" as="sourcePoint" />
            <mxPoint x="1298.5100000000002" y="90" as="targetPoint" />
          </mxGeometry>
        </mxCell>
        <mxCell id="7P_DYDdccwQ0DPqGcEVc-81" value="" style="html=1;points=[[0,0,0,0,5],[0,1,0,0,-5],[1,0,0,0,5],[1,1,0,0,-5]];perimeter=orthogonalPerimeter;outlineConnect=0;targetShapes=umlLifeline;portConstraint=eastwest;newEdgeStyle={&quot;curved&quot;:0,&quot;rounded&quot;:0};fontStyle=1" vertex="1" parent="1">
          <mxGeometry x="1294.0100000000002" y="740" width="10" height="60" as="geometry" />
        </mxCell>
        <mxCell id="7P_DYDdccwQ0DPqGcEVc-88" value="" style="html=1;points=[[0,0,0,0,5],[0,1,0,0,-5],[1,0,0,0,5],[1,1,0,0,-5]];perimeter=orthogonalPerimeter;outlineConnect=0;targetShapes=umlLifeline;portConstraint=eastwest;newEdgeStyle={&quot;curved&quot;:0,&quot;rounded&quot;:0};" vertex="1" parent="1">
          <mxGeometry x="1774.0100000000002" y="840" width="10" height="50" as="geometry" />
        </mxCell>
        <mxCell id="7P_DYDdccwQ0DPqGcEVc-90" value="" style="html=1;points=[[0,0,0,0,5],[0,1,0,0,-5],[1,0,0,0,5],[1,1,0,0,-5]];perimeter=orthogonalPerimeter;outlineConnect=0;targetShapes=umlLifeline;portConstraint=eastwest;newEdgeStyle={&quot;curved&quot;:0,&quot;rounded&quot;:0};" vertex="1" parent="1">
          <mxGeometry x="655" y="190" width="10" height="30" as="geometry" />
        </mxCell>
        <mxCell id="7P_DYDdccwQ0DPqGcEVc-91" value="" style="html=1;points=[[0,0,0,0,5],[0,1,0,0,-5],[1,0,0,0,5],[1,1,0,0,-5]];perimeter=orthogonalPerimeter;outlineConnect=0;targetShapes=umlLifeline;portConstraint=eastwest;newEdgeStyle={&quot;curved&quot;:0,&quot;rounded&quot;:0};" vertex="1" parent="1">
          <mxGeometry x="495" y="290" width="10" height="20" as="geometry" />
        </mxCell>
        <mxCell id="7P_DYDdccwQ0DPqGcEVc-92" value="Κουμπί &quot;&amp;lt;&quot;" style="html=1;whiteSpace=wrap;" vertex="1" parent="1">
          <mxGeometry x="759.9999999999999" y="40" width="120" height="50" as="geometry" />
        </mxCell>
        <mxCell id="7P_DYDdccwQ0DPqGcEVc-93" value="" style="endArrow=none;dashed=1;html=1;rounded=0;entryX=0.5;entryY=1;entryDx=0;entryDy=0;" edge="1" parent="1" source="7P_DYDdccwQ0DPqGcEVc-95" target="7P_DYDdccwQ0DPqGcEVc-92">
          <mxGeometry width="50" height="50" relative="1" as="geometry">
            <mxPoint x="820" y="941.6666666666666" as="sourcePoint" />
            <mxPoint x="840" y="100" as="targetPoint" />
          </mxGeometry>
        </mxCell>
        <mxCell id="7P_DYDdccwQ0DPqGcEVc-94" value="" style="endArrow=none;dashed=1;html=1;rounded=0;entryX=0.5;entryY=1;entryDx=0;entryDy=0;" edge="1" parent="1" target="7P_DYDdccwQ0DPqGcEVc-95">
          <mxGeometry width="50" height="50" relative="1" as="geometry">
            <mxPoint x="820" y="941.6666666666666" as="sourcePoint" />
            <mxPoint x="820" y="90" as="targetPoint" />
          </mxGeometry>
        </mxCell>
        <mxCell id="7P_DYDdccwQ0DPqGcEVc-95" value="" style="html=1;points=[[0,0,0,0,5],[0,1,0,0,-5],[1,0,0,0,5],[1,1,0,0,-5]];perimeter=orthogonalPerimeter;outlineConnect=0;targetShapes=umlLifeline;portConstraint=eastwest;newEdgeStyle={&quot;curved&quot;:0,&quot;rounded&quot;:0};" vertex="1" parent="1">
          <mxGeometry x="815" y="340" width="10" height="580" as="geometry" />
        </mxCell>
        <mxCell id="7P_DYDdccwQ0DPqGcEVc-96" value="" style="endArrow=classic;html=1;rounded=0;" edge="1" parent="1" target="7P_DYDdccwQ0DPqGcEVc-95">
          <mxGeometry width="50" height="50" relative="1" as="geometry">
            <mxPoint x="65" y="340" as="sourcePoint" />
            <mxPoint x="380" y="340" as="targetPoint" />
          </mxGeometry>
        </mxCell>
        <mxCell id="7P_DYDdccwQ0DPqGcEVc-97" value="OnClick()" style="edgeLabel;html=1;align=center;verticalAlign=middle;resizable=0;points=[];" vertex="1" connectable="0" parent="7P_DYDdccwQ0DPqGcEVc-96">
          <mxGeometry x="-0.1092" y="2" relative="1" as="geometry">
            <mxPoint x="341" y="-8" as="offset" />
          </mxGeometry>
        </mxCell>
        <mxCell id="7P_DYDdccwQ0DPqGcEVc-98" value="Redirect()" style="html=1;verticalAlign=bottom;endArrow=open;dashed=1;endSize=8;curved=0;rounded=0;" edge="1" parent="1" source="7P_DYDdccwQ0DPqGcEVc-95">
          <mxGeometry x="0.623" relative="1" as="geometry">
            <mxPoint x="810" y="910" as="sourcePoint" />
            <mxPoint x="499.5" y="910" as="targetPoint" />
            <mxPoint as="offset" />
          </mxGeometry>
        </mxCell>
        <mxCell id="7P_DYDdccwQ0DPqGcEVc-99" value="Redirect()" style="html=1;verticalAlign=bottom;endArrow=open;dashed=1;endSize=8;curved=0;rounded=0;" edge="1" parent="1">
          <mxGeometry x="0.7638" relative="1" as="geometry">
            <mxPoint x="820" y="630" as="sourcePoint" />
            <mxPoint x="185" y="629.88" as="targetPoint" />
            <mxPoint as="offset" />
          </mxGeometry>
        </mxCell>
        <mxCell id="7P_DYDdccwQ0DPqGcEVc-100" value="frame" style="shape=umlFrame;whiteSpace=wrap;html=1;pointerEvents=0;" vertex="1" parent="1">
          <mxGeometry x="80" y="360" width="1900" height="560" as="geometry" />
        </mxCell>
        <mxCell id="7P_DYDdccwQ0DPqGcEVc-107" value="" style="endArrow=none;dashed=1;html=1;dashPattern=1 3;strokeWidth=2;rounded=0;" edge="1" parent="1">
          <mxGeometry width="50" height="50" relative="1" as="geometry">
            <mxPoint x="150" y="650" as="sourcePoint" />
            <mxPoint x="80" y="650" as="targetPoint" />
          </mxGeometry>
        </mxCell>
        <mxCell id="7P_DYDdccwQ0DPqGcEVc-108" value="" style="endArrow=none;dashed=1;html=1;dashPattern=1 3;strokeWidth=2;rounded=0;" edge="1" parent="1">
          <mxGeometry width="50" height="50" relative="1" as="geometry">
            <mxPoint x="220" y="650" as="sourcePoint" />
            <mxPoint x="150" y="650" as="targetPoint" />
          </mxGeometry>
        </mxCell>
        <mxCell id="7P_DYDdccwQ0DPqGcEVc-109" value="" style="endArrow=none;dashed=1;html=1;dashPattern=1 3;strokeWidth=2;rounded=0;" edge="1" parent="1">
          <mxGeometry width="50" height="50" relative="1" as="geometry">
            <mxPoint x="290" y="650" as="sourcePoint" />
            <mxPoint x="220" y="650" as="targetPoint" />
          </mxGeometry>
        </mxCell>
        <mxCell id="7P_DYDdccwQ0DPqGcEVc-110" value="" style="endArrow=none;dashed=1;html=1;dashPattern=1 3;strokeWidth=2;rounded=0;" edge="1" parent="1">
          <mxGeometry width="50" height="50" relative="1" as="geometry">
            <mxPoint x="710" y="650" as="sourcePoint" />
            <mxPoint x="640" y="650" as="targetPoint" />
          </mxGeometry>
        </mxCell>
        <mxCell id="7P_DYDdccwQ0DPqGcEVc-111" value="" style="endArrow=none;dashed=1;html=1;dashPattern=1 3;strokeWidth=2;rounded=0;" edge="1" parent="1">
          <mxGeometry width="50" height="50" relative="1" as="geometry">
            <mxPoint x="780" y="650" as="sourcePoint" />
            <mxPoint x="710" y="650" as="targetPoint" />
          </mxGeometry>
        </mxCell>
        <mxCell id="7P_DYDdccwQ0DPqGcEVc-112" value="" style="endArrow=none;dashed=1;html=1;dashPattern=1 3;strokeWidth=2;rounded=0;" edge="1" parent="1">
          <mxGeometry width="50" height="50" relative="1" as="geometry">
            <mxPoint x="640" y="650" as="sourcePoint" />
            <mxPoint x="570" y="650" as="targetPoint" />
          </mxGeometry>
        </mxCell>
        <mxCell id="7P_DYDdccwQ0DPqGcEVc-113" value="" style="endArrow=none;dashed=1;html=1;dashPattern=1 3;strokeWidth=2;rounded=0;" edge="1" parent="1">
          <mxGeometry width="50" height="50" relative="1" as="geometry">
            <mxPoint x="575" y="650" as="sourcePoint" />
            <mxPoint x="505" y="650" as="targetPoint" />
          </mxGeometry>
        </mxCell>
        <mxCell id="7P_DYDdccwQ0DPqGcEVc-114" value="" style="endArrow=none;dashed=1;html=1;dashPattern=1 3;strokeWidth=2;rounded=0;" edge="1" parent="1">
          <mxGeometry width="50" height="50" relative="1" as="geometry">
            <mxPoint x="505" y="650" as="sourcePoint" />
            <mxPoint x="435" y="650" as="targetPoint" />
          </mxGeometry>
        </mxCell>
        <mxCell id="7P_DYDdccwQ0DPqGcEVc-115" value="" style="endArrow=none;dashed=1;html=1;dashPattern=1 3;strokeWidth=2;rounded=0;" edge="1" parent="1">
          <mxGeometry width="50" height="50" relative="1" as="geometry">
            <mxPoint x="430" y="650" as="sourcePoint" />
            <mxPoint x="360" y="650" as="targetPoint" />
          </mxGeometry>
        </mxCell>
        <mxCell id="7P_DYDdccwQ0DPqGcEVc-116" value="" style="endArrow=none;dashed=1;html=1;dashPattern=1 3;strokeWidth=2;rounded=0;" edge="1" parent="1">
          <mxGeometry width="50" height="50" relative="1" as="geometry">
            <mxPoint x="360" y="650" as="sourcePoint" />
            <mxPoint x="290" y="650" as="targetPoint" />
          </mxGeometry>
        </mxCell>
        <mxCell id="7P_DYDdccwQ0DPqGcEVc-117" value="" style="endArrow=none;dashed=1;html=1;dashPattern=1 3;strokeWidth=2;rounded=0;" edge="1" parent="1">
          <mxGeometry width="50" height="50" relative="1" as="geometry">
            <mxPoint x="850" y="650" as="sourcePoint" />
            <mxPoint x="780" y="650" as="targetPoint" />
          </mxGeometry>
        </mxCell>
        <mxCell id="7P_DYDdccwQ0DPqGcEVc-118" value="" style="endArrow=none;dashed=1;html=1;dashPattern=1 3;strokeWidth=2;rounded=0;" edge="1" parent="1">
          <mxGeometry width="50" height="50" relative="1" as="geometry">
            <mxPoint x="989.01" y="650" as="sourcePoint" />
            <mxPoint x="919.01" y="650" as="targetPoint" />
          </mxGeometry>
        </mxCell>
        <mxCell id="7P_DYDdccwQ0DPqGcEVc-119" value="" style="endArrow=none;dashed=1;html=1;dashPattern=1 3;strokeWidth=2;rounded=0;" edge="1" parent="1">
          <mxGeometry width="50" height="50" relative="1" as="geometry">
            <mxPoint x="919.01" y="650" as="sourcePoint" />
            <mxPoint x="849.01" y="650" as="targetPoint" />
          </mxGeometry>
        </mxCell>
        <mxCell id="7P_DYDdccwQ0DPqGcEVc-121" value="" style="endArrow=none;dashed=1;html=1;dashPattern=1 3;strokeWidth=2;rounded=0;" edge="1" parent="1">
          <mxGeometry width="50" height="50" relative="1" as="geometry">
            <mxPoint x="1275" y="650" as="sourcePoint" />
            <mxPoint x="1205" y="650" as="targetPoint" />
          </mxGeometry>
        </mxCell>
        <mxCell id="7P_DYDdccwQ0DPqGcEVc-122" value="" style="endArrow=none;dashed=1;html=1;dashPattern=1 3;strokeWidth=2;rounded=0;" edge="1" parent="1">
          <mxGeometry width="50" height="50" relative="1" as="geometry">
            <mxPoint x="1204.01" y="650" as="sourcePoint" />
            <mxPoint x="1134.01" y="650" as="targetPoint" />
          </mxGeometry>
        </mxCell>
        <mxCell id="7P_DYDdccwQ0DPqGcEVc-123" value="" style="endArrow=none;dashed=1;html=1;dashPattern=1 3;strokeWidth=2;rounded=0;" edge="1" parent="1">
          <mxGeometry width="50" height="50" relative="1" as="geometry">
            <mxPoint x="1130" y="650" as="sourcePoint" />
            <mxPoint x="1060" y="650" as="targetPoint" />
          </mxGeometry>
        </mxCell>
        <mxCell id="7P_DYDdccwQ0DPqGcEVc-124" value="" style="endArrow=none;dashed=1;html=1;dashPattern=1 3;strokeWidth=2;rounded=0;" edge="1" parent="1">
          <mxGeometry width="50" height="50" relative="1" as="geometry">
            <mxPoint x="1054.01" y="650" as="sourcePoint" />
            <mxPoint x="984.01" y="650" as="targetPoint" />
          </mxGeometry>
        </mxCell>
        <mxCell id="7P_DYDdccwQ0DPqGcEVc-125" value="" style="endArrow=none;dashed=1;html=1;dashPattern=1 3;strokeWidth=2;rounded=0;" edge="1" parent="1">
          <mxGeometry width="50" height="50" relative="1" as="geometry">
            <mxPoint x="1420" y="650" as="sourcePoint" />
            <mxPoint x="1350" y="650" as="targetPoint" />
          </mxGeometry>
        </mxCell>
        <mxCell id="7P_DYDdccwQ0DPqGcEVc-126" value="" style="endArrow=none;dashed=1;html=1;dashPattern=1 3;strokeWidth=2;rounded=0;" edge="1" parent="1">
          <mxGeometry width="50" height="50" relative="1" as="geometry">
            <mxPoint x="1490" y="650" as="sourcePoint" />
            <mxPoint x="1420" y="650" as="targetPoint" />
          </mxGeometry>
        </mxCell>
        <mxCell id="7P_DYDdccwQ0DPqGcEVc-127" value="" style="endArrow=none;dashed=1;html=1;dashPattern=1 3;strokeWidth=2;rounded=0;" edge="1" parent="1">
          <mxGeometry width="50" height="50" relative="1" as="geometry">
            <mxPoint x="1345" y="650" as="sourcePoint" />
            <mxPoint x="1275" y="650" as="targetPoint" />
          </mxGeometry>
        </mxCell>
        <mxCell id="7P_DYDdccwQ0DPqGcEVc-128" value="" style="endArrow=none;dashed=1;html=1;dashPattern=1 3;strokeWidth=2;rounded=0;" edge="1" parent="1">
          <mxGeometry width="50" height="50" relative="1" as="geometry">
            <mxPoint x="1629.01" y="650" as="sourcePoint" />
            <mxPoint x="1559.01" y="650" as="targetPoint" />
          </mxGeometry>
        </mxCell>
        <mxCell id="7P_DYDdccwQ0DPqGcEVc-129" value="" style="endArrow=none;dashed=1;html=1;dashPattern=1 3;strokeWidth=2;rounded=0;" edge="1" parent="1">
          <mxGeometry width="50" height="50" relative="1" as="geometry">
            <mxPoint x="1700" y="650" as="sourcePoint" />
            <mxPoint x="1630" y="650" as="targetPoint" />
          </mxGeometry>
        </mxCell>
        <mxCell id="7P_DYDdccwQ0DPqGcEVc-130" value="" style="endArrow=none;dashed=1;html=1;dashPattern=1 3;strokeWidth=2;rounded=0;" edge="1" parent="1">
          <mxGeometry width="50" height="50" relative="1" as="geometry">
            <mxPoint x="1770" y="650" as="sourcePoint" />
            <mxPoint x="1700" y="650" as="targetPoint" />
          </mxGeometry>
        </mxCell>
        <mxCell id="7P_DYDdccwQ0DPqGcEVc-131" value="" style="endArrow=none;dashed=1;html=1;dashPattern=1 3;strokeWidth=2;rounded=0;" edge="1" parent="1">
          <mxGeometry width="50" height="50" relative="1" as="geometry">
            <mxPoint x="1559.01" y="650" as="sourcePoint" />
            <mxPoint x="1489.01" y="650" as="targetPoint" />
          </mxGeometry>
        </mxCell>
        <mxCell id="7P_DYDdccwQ0DPqGcEVc-132" value="" style="endArrow=none;dashed=1;html=1;dashPattern=1 3;strokeWidth=2;rounded=0;" edge="1" parent="1">
          <mxGeometry width="50" height="50" relative="1" as="geometry">
            <mxPoint x="1910" y="650" as="sourcePoint" />
            <mxPoint x="1840" y="650" as="targetPoint" />
          </mxGeometry>
        </mxCell>
        <mxCell id="7P_DYDdccwQ0DPqGcEVc-133" value="" style="endArrow=none;dashed=1;html=1;dashPattern=1 3;strokeWidth=2;rounded=0;" edge="1" parent="1">
          <mxGeometry width="50" height="50" relative="1" as="geometry">
            <mxPoint x="1980" y="650" as="sourcePoint" />
            <mxPoint x="1910" y="650" as="targetPoint" />
          </mxGeometry>
        </mxCell>
        <mxCell id="7P_DYDdccwQ0DPqGcEVc-135" value="" style="endArrow=none;dashed=1;html=1;dashPattern=1 3;strokeWidth=2;rounded=0;" edge="1" parent="1">
          <mxGeometry width="50" height="50" relative="1" as="geometry">
            <mxPoint x="1839.01" y="650" as="sourcePoint" />
            <mxPoint x="1769.01" y="650" as="targetPoint" />
          </mxGeometry>
        </mxCell>
        <mxCell id="7P_DYDdccwQ0DPqGcEVc-136" value="&lt;b&gt;[Επιλογή από Αρχική Σελίδα]&lt;/b&gt;" style="text;html=1;align=center;verticalAlign=middle;whiteSpace=wrap;rounded=0;" vertex="1" parent="1">
          <mxGeometry x="80" y="410" width="75" height="30" as="geometry" />
        </mxCell>
        <mxCell id="7P_DYDdccwQ0DPqGcEVc-137" value="&lt;b&gt;[Επιλογή από Σελίδα Εμφάνισης Αποτελεσμάτων]&lt;/b&gt;" style="text;html=1;align=center;verticalAlign=middle;whiteSpace=wrap;rounded=0;" vertex="1" parent="1">
          <mxGeometry x="80" y="670" width="95" height="30" as="geometry" />
        </mxCell>
        <mxCell id="7P_DYDdccwQ0DPqGcEVc-138" value="Redirect()" style="html=1;verticalAlign=bottom;endArrow=open;dashed=1;endSize=8;curved=0;rounded=0;" edge="1" parent="1" target="7P_DYDdccwQ0DPqGcEVc-1">
          <mxGeometry x="0.9062" relative="1" as="geometry">
            <mxPoint x="1784.01" y="600" as="sourcePoint" />
            <mxPoint x="1468.51" y="600" as="targetPoint" />
            <mxPoint as="offset" />
          </mxGeometry>
        </mxCell>
        <mxCell id="7P_DYDdccwQ0DPqGcEVc-139" value="Redirect()" style="html=1;verticalAlign=bottom;endArrow=open;dashed=1;endSize=8;curved=0;rounded=0;" edge="1" parent="1">
          <mxGeometry x="0.9062" relative="1" as="geometry">
            <mxPoint x="1784.01" y="890" as="sourcePoint" />
            <mxPoint x="500" y="890" as="targetPoint" />
            <mxPoint as="offset" />
          </mxGeometry>
        </mxCell>
      </root>
    </mxGraphModel>
  </diagram>
</mxfile>
